# xmcd
#
# Track frame offsets:
#	150
#	17302
#	36965
#	49829
#	63059
#	72824
#	85142
#	98942
#	111078
#	123723
#	143113
#	156182
#	167458
#	180521
#	192163
#	204284
#	219946
#	245296
#
# Disc length: 3276 seconds
#
# Revision: 1
# Processed by: cddbd v1.5.2PL0 Copyright (c) Steve Scherf et al.
# Submitted via: audiograbber 1.83.01
#
DISCID=e80cca12
DTITLE=Various Artist - TT-241-05
DYEAR=2001
DGENRE=Karaoke
TTITLE0=Waylon Jennings - Luchenback Texas (Back To The Basics Of Love)
TTITLE1=Kenny Rogers feat. First Edition - Lucille
TTITLE2=Merle Haggard - Make It Through December
TTITLE3=Eddy Arnold and Ray Price - Make The World Go Away
TTITLE4=Merle Haggard - Mama Tried
TTITLE5=Waylon Jennings and Willie Nelson - Mama's Don't Let Your Babies Grow U
TTITLE5=p To Be Cowboys
TTITLE6=Charlie Rich - The Most Beautiful Girl
TTITLE7=Don Gibson - Oh, Lonesome Me
TTITLE8=Merle Haggard - Okie From Muskogee
TTITLE9=Tom T Hall - Old Dogs - Children And Watermelon Wine
TTITLE10=Jim Reeves - One Has My Name, One Has My Heart
TTITLE11=Hank Locklin - Please Help Me I'm Falling
TTITLE12=Wanda Jackson - Right Or Wrong
TTITLE13=Johnny Cash - Ring Of Fire
TTITLE14=Osborne Brothers - Rocky Top
TTITLE15=John Conlee - Rose Colored Glasses
TTITLE16=Lynn Anderson - Rose Garden
TTITLE17=N/A Data Track - Data Track
EXTD=
EXTT0=
EXTT1=
EXTT2=
EXTT3=
EXTT4=
EXTT5=
EXTT6=
EXTT7=
EXTT8=
EXTT9=
EXTT10=
EXTT11=
EXTT12=
EXTT13=
EXTT14=
EXTT15=
EXTT16=
EXTT17=
PLAYORDER=
